<svg width="90" height="12" viewBox="0 0 90 12" fill="none" xmlns="http://www.w3.org/2000/svg">
<path d="M4.155 11.18C3.425 11.18 2.7 11.085 1.98 10.895C1.27 10.695 0.66 10.415 0.15 10.055L1.11 8.195C1.51 8.485 1.97 8.715 2.49 8.885C3.02 9.055 3.555 9.14 4.095 9.14C4.705 9.14 5.185 9.02 5.535 8.78C5.885 8.54 6.06 8.205 6.06 7.775C6.06 7.505 5.99 7.265 5.85 7.055C5.71 6.845 5.46 6.685 5.1 6.575C4.75 6.465 4.255 6.41 3.615 6.41H0.93L1.47 0.499999H7.875V2.45H2.34L3.6 1.34L3.225 5.555L1.965 4.445H4.185C5.225 4.445 6.06 4.59 6.69 4.88C7.33 5.16 7.795 5.545 8.085 6.035C8.375 6.525 8.52 7.08 8.52 7.7C8.52 8.32 8.365 8.895 8.055 9.425C7.745 9.945 7.265 10.37 6.615 10.7C5.975 11.02 5.155 11.18 4.155 11.18ZM13.1959 0.32C14.1659 0.32 15.0009 0.52 15.7009 0.919999C16.4009 1.32 16.9409 1.905 17.3209 2.675C17.7009 3.435 17.8909 4.385 17.8909 5.525C17.8909 6.735 17.6609 7.76 17.2009 8.6C16.7509 9.44 16.1259 10.08 15.3259 10.52C14.5259 10.96 13.5959 11.18 12.5359 11.18C11.9859 11.18 11.4559 11.12 10.9459 11C10.4359 10.88 9.9959 10.7 9.6259 10.46L10.5259 8.675C10.8159 8.875 11.1259 9.015 11.4559 9.095C11.7859 9.165 12.1309 9.2 12.4909 9.2C13.3909 9.2 14.1059 8.925 14.6359 8.375C15.1759 7.825 15.4459 7.01 15.4459 5.93C15.4459 5.75 15.4409 5.55 15.4309 5.33C15.4209 5.11 15.3959 4.89 15.3559 4.67L16.0159 5.3C15.8459 5.69 15.6059 6.02 15.2959 6.29C14.9859 6.55 14.6259 6.75 14.2159 6.89C13.8059 7.02 13.3459 7.085 12.8359 7.085C12.1659 7.085 11.5559 6.95 11.0059 6.68C10.4659 6.41 10.0309 6.03 9.7009 5.54C9.3809 5.05 9.2209 4.475 9.2209 3.815C9.2209 3.095 9.3959 2.475 9.7459 1.955C10.1059 1.435 10.5859 1.035 11.1859 0.755C11.7959 0.465 12.4659 0.32 13.1959 0.32ZM13.3459 2.135C12.9959 2.135 12.6909 2.2 12.4309 2.33C12.1709 2.45 11.9659 2.63 11.8159 2.87C11.6659 3.1 11.5909 3.375 11.5909 3.695C11.5909 4.175 11.7509 4.56 12.0709 4.85C12.4009 5.13 12.8359 5.27 13.3759 5.27C13.7259 5.27 14.0359 5.205 14.3059 5.075C14.5859 4.935 14.8009 4.745 14.9509 4.505C15.1009 4.265 15.1759 3.995 15.1759 3.695C15.1759 3.395 15.1009 3.13 14.9509 2.9C14.8109 2.66 14.6059 2.475 14.3359 2.345C14.0659 2.205 13.7359 2.135 13.3459 2.135ZM20.6181 11V1.4L21.6681 2.45H18.5181V0.499999H23.0481V11H20.6181ZM32.8102 0.32C33.7802 0.32 34.6152 0.52 35.3152 0.919999C36.0152 1.32 36.5552 1.905 36.9352 2.675C37.3152 3.435 37.5052 4.385 37.5052 5.525C37.5052 6.735 37.2752 7.76 36.8152 8.6C36.3652 9.44 35.7402 10.08 34.9402 10.52C34.1402 10.96 33.2102 11.18 32.1502 11.18C31.6002 11.18 31.0702 11.12 30.5602 11C30.0502 10.88 29.6102 10.7 29.2402 10.46L30.1402 8.675C30.4302 8.875 30.7402 9.015 31.0702 9.095C31.4002 9.165 31.7452 9.2 32.1052 9.2C33.0052 9.2 33.7202 8.925 34.2502 8.375C34.7902 7.825 35.0602 7.01 35.0602 5.93C35.0602 5.75 35.0552 5.55 35.0452 5.33C35.0352 5.11 35.0102 4.89 34.9702 4.67L35.6302 5.3C35.4602 5.69 35.2202 6.02 34.9102 6.29C34.6002 6.55 34.2402 6.75 33.8302 6.89C33.4202 7.02 32.9602 7.085 32.4502 7.085C31.7802 7.085 31.1702 6.95 30.6202 6.68C30.0802 6.41 29.6452 6.03 29.3152 5.54C28.9952 5.05 28.8352 4.475 28.8352 3.815C28.8352 3.095 29.0102 2.475 29.3602 1.955C29.7202 1.435 30.2002 1.035 30.8002 0.755C31.4102 0.465 32.0802 0.32 32.8102 0.32ZM32.9602 2.135C32.6102 2.135 32.3052 2.2 32.0452 2.33C31.7852 2.45 31.5802 2.63 31.4302 2.87C31.2802 3.1 31.2052 3.375 31.2052 3.695C31.2052 4.175 31.3652 4.56 31.6852 4.85C32.0152 5.13 32.4502 5.27 32.9902 5.27C33.3402 5.27 33.6502 5.205 33.9202 5.075C34.2002 4.935 34.4152 4.745 34.5652 4.505C34.7152 4.265 34.7902 3.995 34.7902 3.695C34.7902 3.395 34.7152 3.13 34.5652 2.9C34.4252 2.66 34.2202 2.475 33.9502 2.345C33.6802 2.205 33.3502 2.135 32.9602 2.135ZM43.1709 11.18C42.3109 11.18 41.5409 10.97 40.8609 10.55C40.1809 10.12 39.6459 9.5 39.2559 8.69C38.8659 7.88 38.6709 6.9 38.6709 5.75C38.6709 4.6 38.8659 3.62 39.2559 2.81C39.6459 2 40.1809 1.385 40.8609 0.965C41.5409 0.535 42.3109 0.32 43.1709 0.32C44.0409 0.32 44.8109 0.535 45.4809 0.965C46.1609 1.385 46.6959 2 47.0859 2.81C47.4759 3.62 47.6709 4.6 47.6709 5.75C47.6709 6.9 47.4759 7.88 47.0859 8.69C46.6959 9.5 46.1609 10.12 45.4809 10.55C44.8109 10.97 44.0409 11.18 43.1709 11.18ZM43.1709 9.125C43.5809 9.125 43.9359 9.01 44.2359 8.78C44.5459 8.55 44.7859 8.185 44.9559 7.685C45.1359 7.185 45.2259 6.54 45.2259 5.75C45.2259 4.96 45.1359 4.315 44.9559 3.815C44.7859 3.315 44.5459 2.95 44.2359 2.72C43.9359 2.49 43.5809 2.375 43.1709 2.375C42.7709 2.375 42.4159 2.49 42.1059 2.72C41.8059 2.95 41.5659 3.315 41.3859 3.815C41.2159 4.315 41.1309 4.96 41.1309 5.75C41.1309 6.54 41.2159 7.185 41.3859 7.685C41.5659 8.185 41.8059 8.55 42.1059 8.78C42.4159 9.01 42.7709 9.125 43.1709 9.125ZM48.703 11V9.425L52.753 5.6C53.073 5.31 53.308 5.05 53.458 4.82C53.608 4.59 53.708 4.38 53.758 4.19C53.818 4 53.848 3.825 53.848 3.665C53.848 3.245 53.703 2.925 53.413 2.705C53.133 2.475 52.718 2.36 52.168 2.36C51.728 2.36 51.318 2.445 50.938 2.615C50.568 2.785 50.253 3.05 49.993 3.41L48.223 2.27C48.623 1.67 49.183 1.195 49.903 0.844999C50.623 0.495 51.453 0.32 52.393 0.32C53.173 0.32 53.853 0.45 54.433 0.709999C55.023 0.96 55.478 1.315 55.798 1.775C56.128 2.235 56.293 2.785 56.293 3.425C56.293 3.765 56.248 4.105 56.158 4.445C56.078 4.775 55.908 5.125 55.648 5.495C55.398 5.865 55.028 6.28 54.538 6.74L51.178 9.905L50.713 9.02H56.638V11H48.703ZM66.2387 11.18C65.3587 11.18 64.5887 11.05 63.9287 10.79C63.2687 10.52 62.7537 10.145 62.3837 9.665C62.0137 9.175 61.8287 8.605 61.8287 7.955C61.8287 7.305 62.0087 6.755 62.3687 6.305C62.7387 5.845 63.2537 5.5 63.9137 5.27C64.5737 5.03 65.3487 4.91 66.2387 4.91C67.1387 4.91 67.9187 5.03 68.5787 5.27C69.2487 5.5 69.7637 5.845 70.1237 6.305C70.4937 6.755 70.6787 7.305 70.6787 7.955C70.6787 8.605 70.4937 9.175 70.1237 9.665C69.7537 10.145 69.2337 10.52 68.5637 10.79C67.9037 11.05 67.1287 11.18 66.2387 11.18ZM66.2387 9.395C66.8487 9.395 67.3287 9.26 67.6787 8.99C68.0387 8.72 68.2187 8.35 68.2187 7.88C68.2187 7.41 68.0387 7.045 67.6787 6.785C67.3287 6.515 66.8487 6.38 66.2387 6.38C65.6387 6.38 65.1637 6.515 64.8137 6.785C64.4637 7.045 64.2887 7.41 64.2887 7.88C64.2887 8.35 64.4637 8.72 64.8137 8.99C65.1637 9.26 65.6387 9.395 66.2387 9.395ZM66.2387 6.14C65.4287 6.14 64.7187 6.03 64.1087 5.81C63.5087 5.59 63.0387 5.27 62.6987 4.85C62.3687 4.42 62.2037 3.91 62.2037 3.32C62.2037 2.7 62.3737 2.17 62.7137 1.73C63.0537 1.28 63.5287 0.934999 64.1387 0.694999C64.7487 0.445 65.4487 0.32 66.2387 0.32C67.0487 0.32 67.7537 0.445 68.3537 0.694999C68.9637 0.934999 69.4387 1.28 69.7787 1.73C70.1287 2.17 70.3037 2.7 70.3037 3.32C70.3037 3.91 70.1337 4.42 69.7937 4.85C69.4637 5.27 68.9937 5.59 68.3837 5.81C67.7737 6.03 67.0587 6.14 66.2387 6.14ZM66.2387 4.715C66.7487 4.715 67.1487 4.6 67.4387 4.37C67.7387 4.14 67.8887 3.825 67.8887 3.425C67.8887 3.005 67.7337 2.68 67.4237 2.45C67.1237 2.22 66.7287 2.105 66.2387 2.105C65.7587 2.105 65.3687 2.22 65.0687 2.45C64.7687 2.68 64.6187 3.005 64.6187 3.425C64.6187 3.825 64.7637 4.14 65.0537 4.37C65.3437 4.6 65.7387 4.715 66.2387 4.715ZM76.1411 11.18C75.2611 11.18 74.4911 11.05 73.8311 10.79C73.1711 10.52 72.6561 10.145 72.2861 9.665C71.9161 9.175 71.7311 8.605 71.7311 7.955C71.7311 7.305 71.9111 6.755 72.2711 6.305C72.6411 5.845 73.1561 5.5 73.8161 5.27C74.4761 5.03 75.2511 4.91 76.1411 4.91C77.0411 4.91 77.8211 5.03 78.4811 5.27C79.1511 5.5 79.6661 5.845 80.0261 6.305C80.3961 6.755 80.5811 7.305 80.5811 7.955C80.5811 8.605 80.3961 9.175 80.0261 9.665C79.6561 10.145 79.1361 10.52 78.4661 10.79C77.8061 11.05 77.0311 11.18 76.1411 11.18ZM76.1411 9.395C76.7511 9.395 77.2311 9.26 77.5811 8.99C77.9411 8.72 78.1211 8.35 78.1211 7.88C78.1211 7.41 77.9411 7.045 77.5811 6.785C77.2311 6.515 76.7511 6.38 76.1411 6.38C75.5411 6.38 75.0661 6.515 74.7161 6.785C74.3661 7.045 74.1911 7.41 74.1911 7.88C74.1911 8.35 74.3661 8.72 74.7161 8.99C75.0661 9.26 75.5411 9.395 76.1411 9.395ZM76.1411 6.14C75.3311 6.14 74.6211 6.03 74.0111 5.81C73.4111 5.59 72.9411 5.27 72.6011 4.85C72.2711 4.42 72.1061 3.91 72.1061 3.32C72.1061 2.7 72.2761 2.17 72.6161 1.73C72.9561 1.28 73.4311 0.934999 74.0411 0.694999C74.6511 0.445 75.3511 0.32 76.1411 0.32C76.9511 0.32 77.6561 0.445 78.2561 0.694999C78.8661 0.934999 79.3411 1.28 79.6811 1.73C80.0311 2.17 80.2061 2.7 80.2061 3.32C80.2061 3.91 80.0361 4.42 79.6961 4.85C79.3661 5.27 78.8961 5.59 78.2861 5.81C77.6761 6.03 76.9611 6.14 76.1411 6.14ZM76.1411 4.715C76.6511 4.715 77.0511 4.6 77.3411 4.37C77.6411 4.14 77.7911 3.825 77.7911 3.425C77.7911 3.005 77.6361 2.68 77.3261 2.45C77.0261 2.22 76.6311 2.105 76.1411 2.105C75.6611 2.105 75.2711 2.22 74.9711 2.45C74.6711 2.68 74.5211 3.005 74.5211 3.425C74.5211 3.825 74.6661 4.14 74.9561 4.37C75.2461 4.6 75.6411 4.715 76.1411 4.715ZM85.0984 11.18C84.3684 11.18 83.6434 11.085 82.9234 10.895C82.2034 10.695 81.5934 10.415 81.0934 10.055L82.0384 8.195C82.4384 8.485 82.9034 8.715 83.4334 8.885C83.9634 9.055 84.4984 9.14 85.0384 9.14C85.6484 9.14 86.1284 9.02 86.4784 8.78C86.8284 8.54 87.0034 8.21 87.0034 7.79C87.0034 7.39 86.8484 7.075 86.5384 6.845C86.2284 6.615 85.7284 6.5 85.0384 6.5H83.9284V4.895L86.8534 1.58L87.1234 2.45H81.6184V0.499999H88.9684V2.075L86.0584 5.39L84.8284 4.685H85.5334C86.8234 4.685 87.7984 4.975 88.4584 5.555C89.1184 6.135 89.4484 6.88 89.4484 7.79C89.4484 8.38 89.2934 8.935 88.9834 9.455C88.6734 9.965 88.1984 10.38 87.5584 10.7C86.9184 11.02 86.0984 11.18 85.0984 11.18Z" fill="#302929"/>
</svg>
